<svg xmlns="http://www.w3.org/2000/svg" viewBox="0 0 450 450" xml:space="preserve">
  <path fill="#5382a1" d="M127.3 325.3c1 8.8 9.9 15.6 23.9 15.6 19.3 0 32.1-13.7 32.1-34.1 0-14.7-6.9-24.5-16.7-32.4l-11.8-8.8c-10.8-7.8-17.6-17.6-17.6-30.4 0-16.7 12.7-27.4 30.4-27.4 12.7 0 23.5 4.9 23.5 15.7l-16.7 1c-1-5.9-4.9-7.8-10.8-7.8-7.8 0-11.8 4.9-11.8 11.8 0 8.8 3.9 13.7 13.7 20.6l12.7 8.8c12.7 10.8 21.6 21.6 21.6 42.1 0 28.4-18.6 49-51 49-26.5 0-39.2-12.7-40.2-24.5l18.4-.5z"/>
  <path fill="#e76f00" d="M296.8 238.6c1.1-2.9 2-5.7 2.6-8.6 1.8-9.4-4-19-13.8-21-9.6-1.8-19 4-21 13.8-.6 2.9-1 5.7-.9 8.6-8.8.4-17.9 2.5-26.3 6.9 0 0 0 .1-.1.1 1.7-4.1 3-8.3 3.6-12.7 1.8-9.4-4-19-13.8-21-9.7-1.8-19 4-21 13.8-1.8 9.4 4 19 13.8 21 4.1.8 8.1.6 11.9-.3-5.2 6.8-8.8 14.6-10.4 23.3-1.8 9.4 4 19 13.8 21 9.6 1.8 19-4 21-13.8.4-2 1.3-4.1 2.2-6.1 7.2-2.5 15-3.4 22.4-2.5-2 3.8-3.3 8-3.9 12.4-1.8 9.4 4 19 13.8 21 9.7 1.8 19-4 21-13.8 1.8-9.4-4-19-13.8-21-3.1-.6-6.3-.7-9.3-.1 5.3-7.3 9.4-15.6 12-24.4zm-75.1 1.2c-2.4-.4-4.2-2.8-3.7-5.2.4-2.4 2.8-4.2 5.2-3.7 2.4.4 4.2 2.8 3.7 5.2-.4 2.5-2.8 4.2-5.2 3.7zm49.9 19.4c-2.4-.4-4.2-2.8-3.7-5.2.4-2.4 2.8-4.2 5.2-3.7 2.4.4 4.2 2.8 3.7 5.2-.4 2.5-2.8 4.2-5.2 3.7zm11.7-45.6c2.4.4 4.2 2.8 3.7 5.2-.4 2.4-2.8 4.2-5.2 3.7-2.4-.4-4.2-2.8-3.7-5.2.4-2.5 2.8-4.2 5.2-3.7zm-49.9-19.4c2.4.4 4.2 2.8 3.7 5.2-.4 2.4-2.8 4.2-5.2 3.7-2.4-.4-4.2-2.8-3.7-5.2.4-2.5 2.8-4.2 5.2-3.7z"/>
  <path fill="#5382a1" d="M336.1 364c-3.7-2.5-8.2-4-13.1-4H126.9c-4.9 0-9.4 1.5-13.1 4-6.3 4.3-10.4 11.5-10.4 19.6s4.1 15.3 10.4 19.6c3.7 2.5 8.2 4 13.1 4H323c4.9 0 9.4-1.5 13.1-4 6.3-4.3 10.4-11.5 10.4-19.6s-4.1-15.3-10.4-19.6z"/>
</svg>
